<svg viewBox="0 0 1920 1920" fill="none" xmlns="http://www.w3.org/2000/svg" height="250" width="250" stroke-width="1"><g clip-path="url(#clip0_121_33)"><path fill="black" d="M0 0h1920v1920H0Z"></path><g filter="url(#filter0_f_121_33)"><path fill="#002ED2" d="M595.092 355.893A1264.73 911.971-9.386 1 0 3090.688-56.623 1264.73 911.971-9.386 1 0 595.092 355.893"></path></g><g filter="url(#filter1_f_121_33)"><path fill="#8905AA" d="M-816.642-38.508a1004.84 732.468-2.531 1 0 2007.72-88.754 1004.84 732.468-2.531 1 0-2007.72 88.754"></path></g><g filter="url(#filter2_f_121_33)"><path fill="#00726B" d="M755.956 1334.395a1180.57 772.897 9.454 1 0 2329.068 387.85 1180.57 772.897 9.454 1 0-2329.068-387.85"></path></g></g><defs><filter id="filter0_f_121_33" x="-413.859" y="-1773.67" width="4513.5" height="3846.61" filterUnits="userSpaceOnUse" color-interpolation-filters="sRGB"><feFlood flood-opacity="0" result="BackgroundImageFix"></feFlood><feBlend mode="normal" in="SourceGraphic" in2="BackgroundImageFix" result="shape"></feBlend><feGaussianBlur stdDeviation="500" result="effect1_foregroundBlur_121_33"></feGaussianBlur></filter><filter id="filter1_f_121_33" x="-1817.17" y="-1816.01" width="4008.78" height="3466.24" filterUnits="userSpaceOnUse" color-interpolation-filters="sRGB"><feFlood flood-opacity="0" result="BackgroundImageFix"></feFlood><feBlend mode="normal" in="SourceGraphic" in2="BackgroundImageFix" result="shape"></feBlend><feGaussianBlur stdDeviation="500" result="effect1_foregroundBlur_121_33"></feGaussianBlur></filter><filter id="filter2_f_121_33" x="-251.043" y="-258.54" width="4343.07" height="3573.73" filterUnits="userSpaceOnUse" color-interpolation-filters="sRGB"><feFlood flood-opacity="0" result="BackgroundImageFix"></feFlood><feBlend mode="normal" in="SourceGraphic" in2="BackgroundImageFix" result="shape"></feBlend><feGaussianBlur stdDeviation="500" result="effect1_foregroundBlur_121_33"></feGaussianBlur></filter><clipPath id="clip0_121_33"><path fill="white" d="M0 0h1920v1920H0Z"></path></clipPath></defs></svg>